<mxfile host="app.diagrams.net" agent="Mozilla/5.0 (Windows NT 10.0; Win64; x64) AppleWebKit/537.36 (KHTML, like Gecko) Chrome/131.0.0.0 Safari/537.36" version="25.0.3">
  <diagram name="Pàgina-1" id="J5MT5u0cnqmtdoeKDXBp">
    <mxGraphModel grid="1" page="1" gridSize="10" guides="1" tooltips="1" connect="1" arrows="1" fold="1" pageScale="1" pageWidth="827" pageHeight="1169" math="0" shadow="0">
      <root>
        <mxCell id="0" />
        <mxCell id="1" parent="0" />
        <mxCell id="SKoF09PmNQ7qYrTvc2yD-17" value="Distribució" style="swimlane;fontStyle=0;childLayout=stackLayout;horizontal=1;startSize=30;horizontalStack=0;resizeParent=1;resizeParentMax=0;resizeLast=0;collapsible=1;marginBottom=0;whiteSpace=wrap;html=1;" vertex="1" parent="1">
          <mxGeometry x="550" y="375" width="160" height="120" as="geometry" />
        </mxCell>
        <mxCell id="SKoF09PmNQ7qYrTvc2yD-18" value="- nom: String" style="text;align=left;verticalAlign=top;spacingLeft=4;spacingRight=4;overflow=hidden;rotatable=0;points=[[0,0.5],[1,0.5]];portConstraint=eastwest;rounded=0;shadow=0;html=0;" vertex="1" parent="SKoF09PmNQ7qYrTvc2yD-17">
          <mxGeometry y="30" width="160" height="30" as="geometry" />
        </mxCell>
        <mxCell id="SKoF09PmNQ7qYrTvc2yD-19" value="- estil: String" style="text;align=left;verticalAlign=top;spacingLeft=4;spacingRight=4;overflow=hidden;rotatable=0;points=[[0,0.5],[1,0.5]];portConstraint=eastwest;rounded=0;shadow=0;html=0;" vertex="1" parent="SKoF09PmNQ7qYrTvc2yD-17">
          <mxGeometry y="60" width="160" height="30" as="geometry" />
        </mxCell>
        <mxCell id="SKoF09PmNQ7qYrTvc2yD-20" value="- visible: bool" style="text;align=left;verticalAlign=top;spacingLeft=4;spacingRight=4;overflow=hidden;rotatable=0;points=[[0,0.5],[1,0.5]];portConstraint=eastwest;rounded=0;shadow=0;html=0;" vertex="1" parent="SKoF09PmNQ7qYrTvc2yD-17">
          <mxGeometry y="90" width="160" height="30" as="geometry" />
        </mxCell>
        <mxCell id="SKoF09PmNQ7qYrTvc2yD-30" style="rounded=0;orthogonalLoop=1;jettySize=auto;html=1;exitX=0;exitY=0.5;exitDx=0;exitDy=0;entryX=1;entryY=0.5;entryDx=0;entryDy=0;" edge="1" parent="1" source="SKoF09PmNQ7qYrTvc2yD-19">
          <mxGeometry relative="1" as="geometry">
            <mxPoint x="300" y="450" as="targetPoint" />
          </mxGeometry>
        </mxCell>
        <mxCell id="SKoF09PmNQ7qYrTvc2yD-31" value="*" style="edgeLabel;html=1;align=center;verticalAlign=middle;resizable=0;points=[];" connectable="0" vertex="1" parent="SKoF09PmNQ7qYrTvc2yD-30">
          <mxGeometry x="-0.8161" y="-1" relative="1" as="geometry">
            <mxPoint x="13" y="-7" as="offset" />
          </mxGeometry>
        </mxCell>
        <mxCell id="SKoF09PmNQ7qYrTvc2yD-32" value="1..*" style="edgeLabel;html=1;align=center;verticalAlign=middle;resizable=0;points=[];" connectable="0" vertex="1" parent="SKoF09PmNQ7qYrTvc2yD-30">
          <mxGeometry x="0.8832" y="2" relative="1" as="geometry">
            <mxPoint y="-13" as="offset" />
          </mxGeometry>
        </mxCell>
        <mxCell id="SKoF09PmNQ7qYrTvc2yD-33" value="està formada per" style="edgeLabel;html=1;align=center;verticalAlign=middle;resizable=0;points=[];" connectable="0" vertex="1" parent="SKoF09PmNQ7qYrTvc2yD-30">
          <mxGeometry x="-0.0405" y="3" relative="1" as="geometry">
            <mxPoint x="-27" y="10" as="offset" />
          </mxGeometry>
        </mxCell>
        <mxCell id="SKoF09PmNQ7qYrTvc2yD-48" style="edgeStyle=none;curved=1;rounded=0;orthogonalLoop=1;jettySize=auto;html=1;fontSize=12;startSize=8;endSize=8;dashed=1;entryX=0.5;entryY=1;entryDx=0;entryDy=0;" edge="1" parent="1" target="SKoF09PmNQ7qYrTvc2yD-49">
          <mxGeometry relative="1" as="geometry">
            <mxPoint x="391" y="448" as="sourcePoint" />
            <mxPoint x="391" y="305" as="targetPoint" />
          </mxGeometry>
        </mxCell>
        <mxCell id="SKoF09PmNQ7qYrTvc2yD-49" value="MobleDistribució" style="swimlane;fontStyle=0;childLayout=stackLayout;horizontal=1;startSize=30;horizontalStack=0;resizeParent=1;resizeParentMax=0;resizeLast=0;collapsible=1;marginBottom=0;whiteSpace=wrap;html=1;" vertex="1" parent="1">
          <mxGeometry x="320" y="260" width="140" height="60" as="geometry" />
        </mxCell>
        <mxCell id="SKoF09PmNQ7qYrTvc2yD-50" value="- visible: bool" style="text;align=left;verticalAlign=top;spacingLeft=4;spacingRight=4;overflow=hidden;rotatable=0;points=[[0,0.5],[1,0.5]];portConstraint=eastwest;rounded=0;shadow=0;html=0;" vertex="1" parent="SKoF09PmNQ7qYrTvc2yD-49">
          <mxGeometry y="30" width="140" height="30" as="geometry" />
        </mxCell>
        <mxCell id="EMGkwOmhK7pfe9Y6WKfh-1" value="MobleCol·locat" style="swimlane;fontStyle=0;childLayout=stackLayout;horizontal=1;startSize=30;horizontalStack=0;resizeParent=1;resizeParentMax=0;resizeLast=0;collapsible=1;marginBottom=0;whiteSpace=wrap;html=1;" vertex="1" parent="1">
          <mxGeometry x="140" y="410" width="160" height="82" as="geometry" />
        </mxCell>
        <mxCell id="EMGkwOmhK7pfe9Y6WKfh-2" value="- color: Integer [3]&#xa;" style="text;align=left;verticalAlign=top;spacingLeft=4;spacingRight=4;overflow=hidden;rotatable=0;points=[[0,0.5],[1,0.5]];portConstraint=eastwest;rounded=0;shadow=0;html=0;" vertex="1" parent="EMGkwOmhK7pfe9Y6WKfh-1">
          <mxGeometry y="30" width="160" height="26" as="geometry" />
        </mxCell>
        <mxCell id="EMGkwOmhK7pfe9Y6WKfh-3" value="- dimensions: Integer [3]" style="text;align=left;verticalAlign=top;spacingLeft=4;spacingRight=4;overflow=hidden;rotatable=0;points=[[0,0.5],[1,0.5]];portConstraint=eastwest;rounded=0;shadow=0;html=0;" vertex="1" parent="EMGkwOmhK7pfe9Y6WKfh-1">
          <mxGeometry y="56" width="160" height="26" as="geometry" />
        </mxCell>
        <mxCell id="EMGkwOmhK7pfe9Y6WKfh-4" value="" style="endArrow=none;dashed=1;html=1;rounded=0;entryX=0.181;entryY=1.077;entryDx=0;entryDy=0;entryPerimeter=0;exitX=0.5;exitY=0;exitDx=0;exitDy=0;" edge="1" parent="1" source="EMGkwOmhK7pfe9Y6WKfh-5" target="EMGkwOmhK7pfe9Y6WKfh-3">
          <mxGeometry width="50" height="50" relative="1" as="geometry">
            <mxPoint x="150" y="590" as="sourcePoint" />
            <mxPoint x="200" y="520" as="targetPoint" />
          </mxGeometry>
        </mxCell>
        <mxCell id="EMGkwOmhK7pfe9Y6WKfh-5" value="" style="rhombus;whiteSpace=wrap;html=1;" vertex="1" parent="1">
          <mxGeometry x="152" y="585" width="30" height="30" as="geometry" />
        </mxCell>
        <mxCell id="EMGkwOmhK7pfe9Y6WKfh-7" value="" style="endArrow=none;html=1;rounded=0;entryX=0;entryY=1;entryDx=0;entryDy=0;" edge="1" parent="1" target="EMGkwOmhK7pfe9Y6WKfh-5">
          <mxGeometry width="50" height="50" relative="1" as="geometry">
            <mxPoint x="120" y="660" as="sourcePoint" />
            <mxPoint x="170" y="610" as="targetPoint" />
            <Array as="points">
              <mxPoint x="110" y="670" />
            </Array>
          </mxGeometry>
        </mxCell>
        <mxCell id="EMGkwOmhK7pfe9Y6WKfh-15" value="habitació" style="edgeLabel;html=1;align=center;verticalAlign=middle;resizable=0;points=[];rotation=-45;" connectable="0" vertex="1" parent="EMGkwOmhK7pfe9Y6WKfh-7">
          <mxGeometry x="0.06" relative="1" as="geometry">
            <mxPoint x="-6" y="-8" as="offset" />
          </mxGeometry>
        </mxCell>
        <mxCell id="EMGkwOmhK7pfe9Y6WKfh-8" value="" style="endArrow=none;html=1;rounded=0;exitX=1;exitY=1;exitDx=0;exitDy=0;" edge="1" parent="1" source="EMGkwOmhK7pfe9Y6WKfh-5">
          <mxGeometry width="50" height="50" relative="1" as="geometry">
            <mxPoint x="200" y="610" as="sourcePoint" />
            <mxPoint x="240" y="660" as="targetPoint" />
          </mxGeometry>
        </mxCell>
        <mxCell id="EMGkwOmhK7pfe9Y6WKfh-13" value="visita" style="edgeLabel;html=1;align=center;verticalAlign=middle;resizable=0;points=[];rotation=40;" connectable="0" vertex="1" parent="EMGkwOmhK7pfe9Y6WKfh-8">
          <mxGeometry x="0.2633" y="-3" relative="1" as="geometry">
            <mxPoint y="-20" as="offset" />
          </mxGeometry>
        </mxCell>
        <mxCell id="EMGkwOmhK7pfe9Y6WKfh-9" value="" style="endArrow=none;html=1;rounded=0;exitX=0.5;exitY=1;exitDx=0;exitDy=0;" edge="1" parent="1" source="EMGkwOmhK7pfe9Y6WKfh-5">
          <mxGeometry width="50" height="50" relative="1" as="geometry">
            <mxPoint x="170" y="620" as="sourcePoint" />
            <mxPoint x="170" y="670" as="targetPoint" />
          </mxGeometry>
        </mxCell>
        <mxCell id="EMGkwOmhK7pfe9Y6WKfh-14" value="punt" style="edgeLabel;html=1;align=center;verticalAlign=middle;resizable=0;points=[];rotation=85;" connectable="0" vertex="1" parent="EMGkwOmhK7pfe9Y6WKfh-9">
          <mxGeometry x="0.1658" y="-3" relative="1" as="geometry">
            <mxPoint x="14" y="-6" as="offset" />
          </mxGeometry>
        </mxCell>
        <mxCell id="EMGkwOmhK7pfe9Y6WKfh-10" value="" style="endArrow=none;html=1;rounded=0;exitX=1;exitY=0.5;exitDx=0;exitDy=0;" edge="1" parent="1" source="EMGkwOmhK7pfe9Y6WKfh-5">
          <mxGeometry width="50" height="50" relative="1" as="geometry">
            <mxPoint x="221.5" y="585" as="sourcePoint" />
            <mxPoint x="260" y="610" as="targetPoint" />
          </mxGeometry>
        </mxCell>
        <mxCell id="EMGkwOmhK7pfe9Y6WKfh-12" value="orientacio" style="edgeLabel;html=1;align=center;verticalAlign=middle;resizable=0;points=[];rotation=5;" connectable="0" vertex="1" parent="EMGkwOmhK7pfe9Y6WKfh-10">
          <mxGeometry x="0.0505" relative="1" as="geometry">
            <mxPoint y="-10" as="offset" />
          </mxGeometry>
        </mxCell>
        <mxCell id="EMGkwOmhK7pfe9Y6WKfh-11" value="" style="endArrow=none;html=1;rounded=0;entryX=0;entryY=0.5;entryDx=0;entryDy=0;" edge="1" parent="1" target="EMGkwOmhK7pfe9Y6WKfh-5">
          <mxGeometry width="50" height="50" relative="1" as="geometry">
            <mxPoint x="70" y="620" as="sourcePoint" />
            <mxPoint x="160" y="603" as="targetPoint" />
          </mxGeometry>
        </mxCell>
        <mxCell id="EMGkwOmhK7pfe9Y6WKfh-16" value="moble" style="edgeLabel;html=1;align=center;verticalAlign=middle;resizable=0;points=[];rotation=-15;" connectable="0" vertex="1" parent="EMGkwOmhK7pfe9Y6WKfh-11">
          <mxGeometry x="-0.0404" y="1" relative="1" as="geometry">
            <mxPoint y="-12" as="offset" />
          </mxGeometry>
        </mxCell>
      </root>
    </mxGraphModel>
  </diagram>
</mxfile>
